ply
format ascii 1.0
comment Exported by Aspose.3D 19.7
element vertex 117
property float x
property float y
property float z
property float nx
property float ny
property float nz
property float u
property float v
element face 96
property list uchar int vertex_index
end_header
0 0 1 0 0 1 0 0
0 0 1 0 0 1 0 0
0 0 1 0 0 1 0 0
0 0 1 0 0 1 0 0
0 0 1 0 0 1 0 0
0 0 1 0 0 1 0 0
0 0 1 0 0 1 0 0
0 0 1 0 0 1 0 0
0 0 1 0 0 1 0 0
0 0 1 0 0 1 0 0
0 0 1 0 0 1 0 0
0 0 1 0 0 1 0 0
0 0 1 0 0 0 0 0
0.38268343236509 0 0.923879532511287 0.38268343236509 0 0.923879532511287 0.38268343236509 0
0.331413574035592 0.191341716182545 0.923879532511287 0.331413574035592 0.191341716182545 0.923879532511287 0.331413574035592 0.191341716182545
0.191341716182545 0.331413574035592 0.923879532511287 0.191341716182545 0.331413574035592 0.923879532511287 0.191341716182545 0.331413574035592
2.34318281388422E-17 0.38268343236509 0.923879532511287 2.34318281388422E-17 0.38268343236509 0.923879532511287 2.34318281388422E-17 0.38268343236509
-0.191341716182545 0.331413574035592 0.923879532511287 -0.191341716182545 0.331413574035592 0.923879532511287 -0.191341716182545 0.331413574035592
-0.331413574035592 0.191341716182545 0.923879532511287 -0.331413574035592 0.191341716182545 0.923879532511287 -0.331413574035592 0.191341716182545
-0.38268343236509 4.68636562776845E-17 0.923879532511287 -0.38268343236509 4.68636562776845E-17 0.923879532511287 -0.38268343236509 4.68636562776845E-17
-0.331413574035592 -0.191341716182545 0.923879532511287 -0.331413574035592 -0.191341716182545 0.923879532511287 -0.331413574035592 -0.191341716182545
-0.191341716182545 -0.331413574035592 0.923879532511287 -0.191341716182545 -0.331413574035592 0.923879532511287 -0.191341716182545 -0.331413574035592
-7.02954844165267E-17 -0.38268343236509 0.923879532511287 -7.02954844165267E-17 -0.38268343236509 0.923879532511287 -7.02954844165267E-17 -0.38268343236509
0.191341716182545 -0.331413574035592 0.923879532511287 0.191341716182545 -0.331413574035592 0.923879532511287 0.191341716182545 -0.331413574035592
0.331413574035592 -0.191341716182545 0.923879532511287 0.331413574035592 -0.191341716182545 0.923879532511287 0.331413574035592 -0.191341716182545
0.38268343236509 -9.3727312555369E-17 0.923879532511287 0.38268343236509 -9.3727312555369E-17 0.923879532511287 0.38268343236509 -9.3727312555369E-17
0.707106781186547 0 0.707106781186548 0.707106781186547 0 0.707106781186548 0.707106781186547 0
0.612372435695794 0.353553390593274 0.707106781186548 0.612372435695794 0.353553390593274 0.707106781186548 0.612372435695794 0.353553390593274
0.353553390593274 0.612372435695794 0.707106781186548 0.353553390593274 0.612372435695794 0.707106781186548 0.353553390593274 0.612372435695794
4.32963728535968E-17 0.707106781186547 0.707106781186548 4.32963728535968E-17 0.707106781186547 0.707106781186548 4.32963728535968E-17 0.707106781186547
-0.353553390593274 0.612372435695794 0.707106781186548 -0.353553390593274 0.612372435695794 0.707106781186548 -0.353553390593274 0.612372435695794
-0.612372435695794 0.353553390593274 0.707106781186548 -0.612372435695794 0.353553390593274 0.707106781186548 -0.612372435695794 0.353553390593274
-0.707106781186547 8.65927457071935E-17 0.707106781186548 -0.707106781186547 8.65927457071935E-17 0.707106781186548 -0.707106781186547 8.65927457071935E-17
-0.612372435695794 -0.353553390593274 0.707106781186548 -0.612372435695794 -0.353553390593274 0.707106781186548 -0.612372435695794 -0.353553390593274
-0.353553390593274 -0.612372435695794 0.707106781186548 -0.353553390593274 -0.612372435695794 0.707106781186548 -0.353553390593274 -0.612372435695794
-1.2988911856079E-16 -0.707106781186547 0.707106781186548 -1.2988911856079E-16 -0.707106781186547 0.707106781186548 -1.2988911856079E-16 -0.707106781186547
0.353553390593274 -0.612372435695794 0.707106781186548 0.353553390593274 -0.612372435695794 0.707106781186548 0.353553390593274 -0.612372435695794
0.612372435695794 -0.353553390593274 0.707106781186548 0.612372435695794 -0.353553390593274 0.707106781186548 0.612372435695794 -0.353553390593274
0.707106781186547 -1.73185491414387E-16 0.707106781186548 0.707106781186547 -1.73185491414387E-16 0.707106781186548 0.707106781186547 -1.73185491414387E-16
0.923879532511287 0 0.38268343236509 0.923879532511287 0 0.38268343236509 0.923879532511287 0
0.800103145191266 0.461939766255643 0.38268343236509 0.800103145191266 0.461939766255643 0.38268343236509 0.800103145191266 0.461939766255643
0.461939766255643 0.800103145191265 0.38268343236509 0.461939766255643 0.800103145191265 0.38268343236509 0.461939766255643 0.800103145191265
5.65694372839885E-17 0.923879532511287 0.38268343236509 5.65694372839885E-17 0.923879532511287 0.38268343236509 5.65694372839885E-17 0.923879532511287
-0.461939766255643 0.800103145191266 0.38268343236509 -0.461939766255643 0.800103145191266 0.38268343236509 -0.461939766255643 0.800103145191266
-0.800103145191266 0.461939766255643 0.38268343236509 -0.800103145191266 0.461939766255643 0.38268343236509 -0.800103145191266 0.461939766255643
-0.923879532511287 1.13138874567977E-16 0.38268343236509 -0.923879532511287 1.13138874567977E-16 0.38268343236509 -0.923879532511287 1.13138874567977E-16
-0.800103145191265 -0.461939766255643 0.38268343236509 -0.800103145191265 -0.461939766255643 0.38268343236509 -0.800103145191265 -0.461939766255643
-0.461939766255644 -0.800103145191265 0.38268343236509 -0.461939766255644 -0.800103145191265 0.38268343236509 -0.461939766255644 -0.800103145191265
-1.69708311851965E-16 -0.923879532511287 0.38268343236509 -1.69708311851965E-16 -0.923879532511287 0.38268343236509 -1.69708311851965E-16 -0.923879532511287
0.461939766255643 -0.800103145191265 0.38268343236509 0.461939766255643 -0.800103145191265 0.38268343236509 0.461939766255643 -0.800103145191265
0.800103145191265 -0.461939766255644 0.38268343236509 0.800103145191265 -0.461939766255644 0.38268343236509 0.800103145191265 -0.461939766255644
0.923879532511287 -2.26277749135954E-16 0.38268343236509 0.923879532511287 -2.26277749135954E-16 0.38268343236509 0.923879532511287 -2.26277749135954E-16
1 0 6.12303176911189E-17 1 0 6.12303176911189E-17 1 0
0.866025403784439 0.5 6.12303176911189E-17 0.866025403784439 0.5 6.12303176911189E-17 0.866025403784439 0.5
0.5 0.866025403784439 6.12303176911189E-17 0.5 0.866025403784439 6.12303176911189E-17 0.5 0.866025403784439
6.12303176911189E-17 1 6.12303176911189E-17 6.12303176911189E-17 1 6.12303176911189E-17 6.12303176911189E-17 1
-0.5 0.866025403784439 6.12303176911189E-17 -0.5 0.866025403784439 6.12303176911189E-17 -0.5 0.866025403784439
-0.866025403784439 0.5 6.12303176911189E-17 -0.866025403784439 0.5 6.12303176911189E-17 -0.866025403784439 0.5
-1 1.22460635382238E-16 6.12303176911189E-17 -1 1.22460635382238E-16 6.12303176911189E-17 -1 1.22460635382238E-16
-0.866025403784439 -0.5 6.12303176911189E-17 -0.866025403784439 -0.5 6.12303176911189E-17 -0.866025403784439 -0.5
-0.5 -0.866025403784438 6.12303176911189E-17 -0.5 -0.866025403784438 6.12303176911189E-17 -0.5 -0.866025403784438
-1.83690953073357E-16 -1 6.12303176911189E-17 -1.83690953073357E-16 -1 6.12303176911189E-17 -1.83690953073357E-16 -1
0.5 -0.866025403784439 6.12303176911189E-17 0.5 -0.866025403784439 6.12303176911189E-17 0.5 -0.866025403784439
0.866025403784438 -0.5 6.12303176911189E-17 0.866025403784438 -0.5 6.12303176911189E-17 0.866025403784438 -0.5
1 -2.44921270764475E-16 6.12303176911189E-17 1 -2.44921270764475E-16 6.12303176911189E-17 1 -2.44921270764475E-16
0.923879532511287 0 -0.38268343236509 0.923879532511287 0 -0.38268343236509 0.923879532511287 0
0.800103145191266 0.461939766255643 -0.38268343236509 0.800103145191266 0.461939766255643 -0.38268343236509 0.800103145191266 0.461939766255643
0.461939766255643 0.800103145191265 -0.38268343236509 0.461939766255643 0.800103145191265 -0.38268343236509 0.461939766255643 0.800103145191265
5.65694372839885E-17 0.923879532511287 -0.38268343236509 5.65694372839885E-17 0.923879532511287 -0.38268343236509 5.65694372839885E-17 0.923879532511287
-0.461939766255643 0.800103145191266 -0.38268343236509 -0.461939766255643 0.800103145191266 -0.38268343236509 -0.461939766255643 0.800103145191266
-0.800103145191266 0.461939766255643 -0.38268343236509 -0.800103145191266 0.461939766255643 -0.38268343236509 -0.800103145191266 0.461939766255643
-0.923879532511287 1.13138874567977E-16 -0.38268343236509 -0.923879532511287 1.13138874567977E-16 -0.38268343236509 -0.923879532511287 1.13138874567977E-16
-0.800103145191265 -0.461939766255643 -0.38268343236509 -0.800103145191265 -0.461939766255643 -0.38268343236509 -0.800103145191265 -0.461939766255643
-0.461939766255644 -0.800103145191265 -0.38268343236509 -0.461939766255644 -0.800103145191265 -0.38268343236509 -0.461939766255644 -0.800103145191265
-1.69708311851965E-16 -0.923879532511287 -0.38268343236509 -1.69708311851965E-16 -0.923879532511287 -0.38268343236509 -1.69708311851965E-16 -0.923879532511287
0.461939766255643 -0.800103145191265 -0.38268343236509 0.461939766255643 -0.800103145191265 -0.38268343236509 0.461939766255643 -0.800103145191265
0.800103145191265 -0.461939766255644 -0.38268343236509 0.800103145191265 -0.461939766255644 -0.38268343236509 0.800103145191265 -0.461939766255644
0.923879532511287 -2.26277749135954E-16 -0.38268343236509 0.923879532511287 -2.26277749135954E-16 -0.38268343236509 0.923879532511287 -2.26277749135954E-16
0.707106781186548 0 -0.707106781186547 0.707106781186548 0 -0.707106781186547 0.707106781186548 0
0.612372435695795 0.353553390593274 -0.707106781186547 0.612372435695795 0.353553390593274 -0.707106781186547 0.612372435695795 0.353553390593274
0.353553390593274 0.612372435695795 -0.707106781186547 0.353553390593274 0.612372435695795 -0.707106781186547 0.353553390593274 0.612372435695795
4.32963728535968E-17 0.707106781186548 -0.707106781186547 4.32963728535968E-17 0.707106781186548 -0.707106781186547 4.32963728535968E-17 0.707106781186548
-0.353553390593274 0.612372435695795 -0.707106781186547 -0.353553390593274 0.612372435695795 -0.707106781186548 -0.353553390593274 0.612372435695795
-0.612372435695795 0.353553390593274 -0.707106781186547 -0.612372435695795 0.353553390593274 -0.707106781186547 -0.612372435695795 0.353553390593274
-0.707106781186548 8.65927457071936E-17 -0.707106781186547 -0.707106781186548 8.65927457071936E-17 -0.707106781186547 -0.707106781186548 8.65927457071936E-17
-0.612372435695795 -0.353553390593274 -0.707106781186547 -0.612372435695795 -0.353553390593274 -0.707106781186547 -0.612372435695795 -0.353553390593274
-0.353553390593274 -0.612372435695794 -0.707106781186547 -0.353553390593274 -0.612372435695794 -0.707106781186548 -0.353553390593274 -0.612372435695794
-1.2988911856079E-16 -0.707106781186548 -0.707106781186547 -1.2988911856079E-16 -0.707106781186548 -0.707106781186547 -1.2988911856079E-16 -0.707106781186548
0.353553390593274 -0.612372435695795 -0.707106781186547 0.353553390593274 -0.612372435695795 -0.707106781186547 0.353553390593274 -0.612372435695795
0.612372435695794 -0.353553390593274 -0.707106781186547 0.612372435695794 -0.353553390593274 -0.707106781186548 0.612372435695794 -0.353553390593274
0.707106781186548 -1.73185491414387E-16 -0.707106781186547 0.707106781186548 -1.73185491414387E-16 -0.707106781186547 0.707106781186548 -1.73185491414387E-16
0.38268343236509 0 -0.923879532511287 0.38268343236509 0 -0.923879532511287 0.38268343236509 0
0.331413574035592 0.191341716182545 -0.923879532511287 0.331413574035592 0.191341716182545 -0.923879532511287 0.331413574035592 0.191341716182545
0.191341716182545 0.331413574035592 -0.923879532511287 0.191341716182545 0.331413574035592 -0.923879532511287 0.191341716182545 0.331413574035592
2.34318281388423E-17 0.38268343236509 -0.923879532511287 2.34318281388423E-17 0.38268343236509 -0.923879532511287 2.34318281388423E-17 0.38268343236509
-0.191341716182545 0.331413574035592 -0.923879532511287 -0.191341716182545 0.331413574035592 -0.923879532511287 -0.191341716182545 0.331413574035592
-0.331413574035592 0.191341716182545 -0.923879532511287 -0.331413574035592 0.191341716182545 -0.923879532511287 -0.331413574035592 0.191341716182545
-0.38268343236509 4.68636562776845E-17 -0.923879532511287 -0.38268343236509 4.68636562776845E-17 -0.923879532511287 -0.38268343236509 4.68636562776845E-17
-0.331413574035592 -0.191341716182545 -0.923879532511287 -0.331413574035592 -0.191341716182545 -0.923879532511287 -0.331413574035592 -0.191341716182545
-0.191341716182545 -0.331413574035592 -0.923879532511287 -0.191341716182545 -0.331413574035592 -0.923879532511287 -0.191341716182545 -0.331413574035592
-7.02954844165268E-17 -0.38268343236509 -0.923879532511287 -7.02954844165268E-17 -0.38268343236509 -0.923879532511287 -7.02954844165268E-17 -0.38268343236509
0.191341716182545 -0.331413574035592 -0.923879532511287 0.191341716182545 -0.331413574035592 -0.923879532511287 0.191341716182545 -0.331413574035592
0.331413574035592 -0.191341716182545 -0.923879532511287 0.331413574035592 -0.191341716182545 -0.923879532511287 0.331413574035592 -0.191341716182545
0.38268343236509 -9.3727312555369E-17 -0.923879532511287 0.38268343236509 -9.3727312555369E-17 -0.923879532511287 0.38268343236509 -9.3727312555369E-17
1.22460635382238E-16 0 -1 0 0 0 0 0
1.06054021204601E-16 6.12303176911189E-17 -1 1.06054021204601E-16 6.12303176911189E-17 -1 1.06054021204601E-16 6.12303176911189E-17
6.12303176911189E-17 1.06054021204601E-16 -1 6.12303176911189E-17 1.06054021204601E-16 -1 6.12303176911189E-17 1.06054021204601E-16
7.49830360911069E-33 1.22460635382238E-16 -1 7.49830360911069E-33 1.22460635382238E-16 -1 7.49830360911069E-33 1.22460635382238E-16
-6.12303176911188E-17 1.06054021204601E-16 -1 -6.12303176911188E-17 1.06054021204601E-16 -1 -6.12303176911188E-17 1.06054021204601E-16
-1.06054021204601E-16 6.12303176911189E-17 -1 -1.06054021204601E-16 6.12303176911189E-17 -1 -1.06054021204601E-16 6.12303176911189E-17
-1.22460635382238E-16 1.49966072182214E-32 -1 -1.22460635382238E-16 1.49966072182214E-32 -1 -1.22460635382238E-16 1.49966072182214E-32
-1.06054021204601E-16 -6.12303176911189E-17 -1 -1.06054021204601E-16 -6.12303176911189E-17 -1 -1.06054021204601E-16 -6.12303176911189E-17
-6.12303176911189E-17 -1.06054021204601E-16 -1 -6.12303176911189E-17 -1.06054021204601E-16 -1 -6.12303176911189E-17 -1.06054021204601E-16
-2.24949108273321E-32 -1.22460635382238E-16 -1 -2.24949108273321E-32 -1.22460635382238E-16 -1 -2.24949108273321E-32 -1.22460635382238E-16
6.12303176911189E-17 -1.06054021204601E-16 -1 6.12303176911189E-17 -1.06054021204601E-16 -1 6.12303176911189E-17 -1.06054021204601E-16
1.06054021204601E-16 -6.12303176911189E-17 -1 1.06054021204601E-16 -6.12303176911189E-17 -1 1.06054021204601E-16 -6.12303176911189E-17
1.22460635382238E-16 -2.99932144364427E-32 -1 1.22460635382238E-16 -2.99932144364427E-32 -1 1.22460635382238E-16 -2.99932144364427E-32
3 0 13 14
3 1 14 15
3 2 15 16
3 3 16 17
3 4 17 18
3 5 18 19
3 6 19 20
3 7 20 21
3 8 21 22
3 9 22 23
3 10 23 24
3 11 24 25
4 14 13 26 27
4 15 14 27 28
4 16 15 28 29
4 17 16 29 30
4 18 17 30 31
4 19 18 31 32
4 20 19 32 33
4 21 20 33 34
4 22 21 34 35
4 23 22 35 36
4 24 23 36 37
4 25 24 37 38
4 27 26 39 40
4 28 27 40 41
4 29 28 41 42
4 30 29 42 43
4 31 30 43 44
4 32 31 44 45
4 33 32 45 46
4 34 33 46 47
4 35 34 47 48
4 36 35 48 49
4 37 36 49 50
4 38 37 50 51
4 40 39 52 53
4 41 40 53 54
4 42 41 54 55
4 43 42 55 56
4 44 43 56 57
4 45 44 57 58
4 46 45 58 59
4 47 46 59 60
4 48 47 60 61
4 49 48 61 62
4 50 49 62 63
4 51 50 63 64
4 53 52 65 66
4 54 53 66 67
4 55 54 67 68
4 56 55 68 69
4 57 56 69 70
4 58 57 70 71
4 59 58 71 72
4 60 59 72 73
4 61 60 73 74
4 62 61 74 75
4 63 62 75 76
4 64 63 76 77
4 66 65 78 79
4 67 66 79 80
4 68 67 80 81
4 69 68 81 82
4 70 69 82 83
4 71 70 83 84
4 72 71 84 85
4 73 72 85 86
4 74 73 86 87
4 75 74 87 88
4 76 75 88 89
4 77 76 89 90
4 79 78 91 92
4 80 79 92 93
4 81 80 93 94
4 82 81 94 95
4 83 82 95 96
4 84 83 96 97
4 85 84 97 98
4 86 85 98 99
4 87 86 99 100
4 88 87 100 101
4 89 88 101 102
4 90 89 102 103
3 92 91 105
3 93 92 106
3 94 93 107
3 95 94 108
3 96 95 109
3 97 96 110
3 98 97 111
3 99 98 112
3 100 99 113
3 101 100 114
3 102 101 115
3 103 102 116
